<svg width="64" height="66" viewBox="0 0 64 66" fill="none" xmlns="http://www.w3.org/2000/svg">
<path d="M32.0065 64.6643C33.4564 64.6643 34.6318 63.4531 34.6318 61.9591C34.6318 60.4651 33.4564 59.2539 32.0065 59.2539C30.5566 59.2539 29.3813 60.4651 29.3813 61.9591C29.3813 63.4531 30.5566 64.6643 32.0065 64.6643Z" fill="black" stroke="black" stroke-width="1.32848" stroke-miterlimit="10"/>
<path d="M47.6509 39.4567C48.8492 39.4567 49.8206 38.4558 49.8206 37.221C49.8206 35.9863 48.8492 34.9854 47.6509 34.9854C46.4527 34.9854 45.4813 35.9863 45.4813 37.221C45.4813 38.4558 46.4527 39.4567 47.6509 39.4567Z" fill="black" stroke="black" stroke-width="1.32848" stroke-miterlimit="10"/>
<path d="M42.1362 29.4239C43.2145 29.4239 44.0886 28.5232 44.0886 27.4121C44.0886 26.301 43.2145 25.4002 42.1362 25.4002C41.0579 25.4002 40.1838 26.301 40.1838 27.4121C40.1838 28.5232 41.0579 29.4239 42.1362 29.4239Z" fill="black" stroke="black" stroke-width="1.32848" stroke-miterlimit="10"/>
<path d="M32.0114 4.68794C33.0897 4.68794 33.9638 3.7872 33.9638 2.67609C33.9638 1.56498 33.0897 0.664246 32.0114 0.664246C30.9331 0.664246 30.059 1.56498 30.059 2.67609C30.059 3.7872 30.9331 4.68794 32.0114 4.68794Z" fill="black" stroke="black" stroke-width="1.32848" stroke-miterlimit="10"/>
<path d="M11.6401 13.4138C12.7184 13.4138 13.5925 12.5131 13.5925 11.402C13.5925 10.2908 12.7184 9.39011 11.6401 9.39011C10.5618 9.39011 9.68771 10.2908 9.68771 11.402C9.68771 12.5131 10.5618 13.4138 11.6401 13.4138Z" fill="black" stroke="black" stroke-width="1.32848" stroke-miterlimit="10"/>
<path d="M12.1159 40.6759C13.1942 40.6759 14.0683 39.7752 14.0683 38.6641C14.0683 37.553 13.1942 36.6523 12.1159 36.6523C11.0376 36.6523 10.1635 37.553 10.1635 38.6641C10.1635 39.7752 11.0376 40.6759 12.1159 40.6759Z" fill="black" stroke="black" stroke-width="1.32848" stroke-miterlimit="10"/>
<path d="M11.6372 54.7509C12.5291 54.7509 13.2521 54.0059 13.2521 53.0869C13.2521 52.1679 12.5291 51.4229 11.6372 51.4229C10.7454 51.4229 10.0224 52.1679 10.0224 53.0869C10.0224 54.0059 10.7454 54.7509 11.6372 54.7509Z" fill="black" stroke="black" stroke-width="1.32848" stroke-miterlimit="10"/>
<path d="M52.2524 51.2381C53.2415 51.2381 54.0466 52.0677 54.0466 53.087C54.0466 54.1063 53.2415 54.9358 52.2524 54.9358C51.2632 54.9358 50.4581 54.1063 50.4581 53.087C50.4581 52.0677 51.2632 51.2381 52.2524 51.2381ZM52.2524 49.7785C50.4794 49.7785 49.0416 51.26 49.0416 53.087C49.0416 54.9139 50.4794 56.3955 52.2524 56.3955C54.0253 56.3955 55.4631 54.9139 55.4631 53.087C55.4631 51.26 54.0253 49.7785 52.2524 49.7785Z" fill="black"/>
<path d="M60.7893 30.4678C61.7785 30.4678 62.5835 31.2973 62.5835 32.3166C62.5835 33.3359 61.7785 34.1655 60.7893 34.1655C59.8001 34.1655 58.995 33.3359 58.995 32.3166C58.995 31.2973 59.8001 30.4678 60.7893 30.4678ZM60.7893 29.0081C59.0163 29.0081 57.5785 30.4897 57.5785 32.3166C57.5785 34.1436 59.0163 35.6251 60.7893 35.6251C62.5623 35.6251 64 34.1436 64 32.3166C64 30.4897 62.5623 29.0081 60.7893 29.0081Z" fill="black"/>
<path d="M52.2524 9.55453C53.2415 9.55453 54.0466 10.3841 54.0466 11.4034C54.0466 12.4227 53.2415 13.2522 52.2524 13.2522C51.2632 13.2522 50.4581 12.4227 50.4581 11.4034C50.4581 10.3841 51.2632 9.55453 52.2524 9.55453ZM52.2524 8.09491C50.4794 8.09491 49.0416 9.57643 49.0416 11.4034C49.0416 13.2303 50.4794 14.7119 52.2524 14.7119C54.0253 14.7119 55.4631 13.2303 55.4631 11.4034C55.4631 9.57643 54.0253 8.09491 52.2524 8.09491Z" fill="black"/>
<path d="M23.488 20.5856C24.4772 20.5856 25.2822 21.4151 25.2822 22.4345C25.2822 23.4538 24.4772 24.2833 23.488 24.2833C22.4988 24.2833 21.6937 23.4538 21.6937 22.4345C21.6937 21.4151 22.4988 20.5856 23.488 20.5856ZM23.488 19.126C21.715 19.126 20.2772 20.6075 20.2772 22.4345C20.2772 24.2614 21.715 25.7429 23.488 25.7429C25.261 25.7429 26.6987 24.2614 26.6987 22.4345C26.6987 20.6075 25.261 19.126 23.488 19.126Z" fill="black"/>
<path d="M3.21073 30.4676C4.19992 30.4676 5.00497 31.2971 5.00497 32.3164C5.00497 33.3357 4.19992 34.1653 3.21073 34.1653C2.22154 34.1653 1.4165 33.3357 1.4165 32.3164C1.4165 31.2971 2.22154 30.4676 3.21073 30.4676ZM3.21073 29.008C1.43775 29.008 0 30.4895 0 32.3164C0 34.1434 1.43775 35.6249 3.21073 35.6249C4.98372 35.6249 6.42147 34.1434 6.42147 32.3164C6.42147 30.4895 4.98372 29.008 3.21073 29.008Z" fill="black"/>
<path d="M24.6996 44.6197C25.6888 44.6197 26.4939 45.4492 26.4939 46.4685C26.4939 47.4878 25.6888 48.3174 24.6996 48.3174C23.7104 48.3174 22.9054 47.4878 22.9054 46.4685C22.9054 45.4492 23.7104 44.6197 24.6996 44.6197ZM24.6996 43.1601C22.9267 43.1601 21.4889 44.6416 21.4889 46.4685C21.4889 48.2955 22.9267 49.777 24.6996 49.777C26.4726 49.777 27.9104 48.2955 27.9104 46.4685C27.9104 44.6416 26.4726 43.1601 24.6996 43.1601Z" fill="black"/>
<path d="M22.0202 44.645L12.1165 38.663L20.2756 26.9447" stroke="black" stroke-width="1.32848" stroke-miterlimit="10"/>
<path d="M5.80931 34.2605L8.86187 36.2115" stroke="black" stroke-width="1.32848" stroke-miterlimit="10"/>
<path d="M20.4812 23.604L8.54245 29.7198" stroke="black" stroke-width="1.32848" stroke-miterlimit="10"/>
<path d="M21.8893 48.0799L14.9437 51.4249" stroke="black" stroke-width="1.32848" stroke-miterlimit="10"/>
<path d="M26.7007 43.882L40.75 28.8236" stroke="black" stroke-width="1.32848" stroke-miterlimit="10"/>
<path d="M57.7114 31.3655L43.9903 28.0327" stroke="black" stroke-width="1.32848" stroke-miterlimit="10"/>
<path d="M40.3269 26.6623L26.5845 23.293" stroke="black" stroke-width="1.32848" stroke-miterlimit="10"/>
<path d="M21.1682 20.1524L14.5177 14.2507" stroke="black" stroke-width="1.32848" stroke-miterlimit="10"/>
<path d="M23.4862 25.7457L24.3101 40.6752" stroke="black" stroke-width="1.32848" stroke-miterlimit="10"/>
<path d="M11.6435 51.4251V42.5944" stroke="black" stroke-width="1.32848" stroke-miterlimit="10"/>
<path d="M30.8749 59.522L27.3148 51.4259" stroke="black" stroke-width="1.32848" stroke-miterlimit="10"/>
<path d="M33.1324 59.5212L45.09 41.1519" stroke="black" stroke-width="1.32848" stroke-miterlimit="10"/>
<path d="M53.4622 50.0253L58.3185 37.728" stroke="black" stroke-width="1.32848" stroke-miterlimit="10"/>
<path d="M51.3776 49.9048L48.4856 39.2837" stroke="black" stroke-width="1.32848" stroke-miterlimit="10"/>
<path d="M49.23 54.2115L36.3469 59.904" stroke="black" stroke-width="1.32848" stroke-miterlimit="10"/>
<path d="M57.7126 33.2719L51.9546 35.7946" stroke="black" stroke-width="1.32848" stroke-miterlimit="10"/>
<path d="M59.5283 29.2747L54.3391 16.1259" stroke="black" stroke-width="1.32848" stroke-miterlimit="10"/>
<path d="M50.5804 14.2266L44.3195 24.0693" stroke="black" stroke-width="1.32848" stroke-miterlimit="10"/>
<path d="M46.6591 35.2369L44.3195 31.3664" stroke="black" stroke-width="1.32848" stroke-miterlimit="10"/>
<path d="M45.6385 38.0572L29.5943 44.6449" stroke="black" stroke-width="1.32848" stroke-miterlimit="10"/>
<path d="M29.6258 60.8156L14.9437 54.7509" stroke="black" stroke-width="1.32848" stroke-miterlimit="10"/>
<path d="M13.3559 10.4447L28.5762 3.9397" stroke="black" stroke-width="1.32848" stroke-miterlimit="10"/>
<path d="M10.7558 13.1935L4.47594 29.2761" stroke="black" stroke-width="1.32848" stroke-miterlimit="10"/>
<path d="M4.47594 35.3606L10.7558 51.7011" stroke="black" stroke-width="1.32848" stroke-miterlimit="10"/>
<path d="M33.7161 3.63968L49.2268 10.281" stroke="black" stroke-width="1.32848" stroke-miterlimit="10"/>
<path d="M41.4758 25.5216L33.4561 6.2449" stroke="black" stroke-width="1.32848" stroke-miterlimit="10"/>
<path d="M31.3529 4.57233L25.3894 17.2029" stroke="black" stroke-width="1.32848" stroke-miterlimit="10"/>
</svg>
