<svg width="64" height="64" viewBox="0 0 64 64" fill="none" xmlns="http://www.w3.org/2000/svg">
<path d="M32.0066 62.7737C33.4565 62.7737 34.6318 61.5983 34.6318 60.1484C34.6318 58.6986 33.4565 57.5232 32.0066 57.5232C30.5567 57.5232 29.3813 58.6986 29.3813 60.1484C29.3813 61.5983 30.5567 62.7737 32.0066 62.7737Z" fill="white" stroke="white" stroke-width="1.32848" stroke-miterlimit="10"/>
<path d="M47.6511 38.3111C48.8493 38.3111 49.8207 37.3398 49.8207 36.1415C49.8207 34.9433 48.8493 33.9719 47.6511 33.9719C46.4528 33.9719 45.4814 34.9433 45.4814 36.1415C45.4814 37.3398 46.4528 38.3111 47.6511 38.3111Z" fill="white" stroke="white" stroke-width="1.32848" stroke-miterlimit="10"/>
<path d="M42.1362 28.5745C43.2145 28.5745 44.0887 27.7004 44.0887 26.6221C44.0887 25.5438 43.2145 24.6697 42.1362 24.6697C41.058 24.6697 40.1838 25.5438 40.1838 26.6221C40.1838 27.7004 41.058 28.5745 42.1362 28.5745Z" fill="white" stroke="white" stroke-width="1.32848" stroke-miterlimit="10"/>
<path d="M32.0115 4.56913C33.0898 4.56913 33.9639 3.695 33.9639 2.61672C33.9639 1.53843 33.0898 0.664307 32.0115 0.664307C30.9332 0.664307 30.0591 1.53843 30.0591 2.61672C30.0591 3.695 30.9332 4.56913 32.0115 4.56913Z" fill="white" stroke="white" stroke-width="1.32848" stroke-miterlimit="10"/>
<path d="M11.6402 13.0376C12.7184 13.0376 13.5926 12.1635 13.5926 11.0852C13.5926 10.0069 12.7184 9.13281 11.6402 9.13281C10.5619 9.13281 9.68774 10.0069 9.68774 11.0852C9.68774 12.1635 10.5619 13.0376 11.6402 13.0376Z" fill="white" stroke="white" stroke-width="1.32848" stroke-miterlimit="10"/>
<path d="M12.116 39.4942C13.1943 39.4942 14.0684 38.6201 14.0684 37.5418C14.0684 36.4635 13.1943 35.5894 12.116 35.5894C11.0377 35.5894 10.1636 36.4635 10.1636 37.5418C10.1636 38.6201 11.0377 39.4942 12.116 39.4942Z" fill="white" stroke="white" stroke-width="1.32848" stroke-miterlimit="10"/>
<path d="M11.637 53.1532C12.5289 53.1532 13.2518 52.4302 13.2518 51.5384C13.2518 50.6466 12.5289 49.9236 11.637 49.9236C10.7452 49.9236 10.0222 50.6466 10.0222 51.5384C10.0222 52.4302 10.7452 53.1532 11.637 53.1532Z" fill="white" stroke="white" stroke-width="1.32848" stroke-miterlimit="10"/>
<path d="M52.2525 49.7441C53.2417 49.7441 54.0467 50.5492 54.0467 51.5384C54.0467 52.5276 53.2417 53.3326 52.2525 53.3326C51.2633 53.3326 50.4582 52.5276 50.4582 51.5384C50.4582 50.5492 51.2633 49.7441 52.2525 49.7441ZM52.2525 48.3276C50.4795 48.3276 49.0417 49.7654 49.0417 51.5384C49.0417 53.3114 50.4795 54.7491 52.2525 54.7491C54.0255 54.7491 55.4632 53.3114 55.4632 51.5384C55.4632 49.7654 54.0255 48.3276 52.2525 48.3276Z" fill="white"/>
<path d="M60.7893 29.5874C61.7785 29.5874 62.5836 30.3924 62.5836 31.3816C62.5836 32.3708 61.7785 33.1759 60.7893 33.1759C59.8002 33.1759 58.9951 32.3708 58.9951 31.3816C58.9951 30.3924 59.8002 29.5874 60.7893 29.5874ZM60.7893 28.1709C59.0164 28.1709 57.5786 29.6086 57.5786 31.3816C57.5786 33.1546 59.0164 34.5924 60.7893 34.5924C62.5623 34.5924 64.0001 33.1546 64.0001 31.3816C64.0001 29.6086 62.5623 28.1709 60.7893 28.1709Z" fill="white"/>
<path d="M52.2525 9.29199C53.2417 9.29199 54.0467 10.097 54.0467 11.0862C54.0467 12.0754 53.2417 12.8805 52.2525 12.8805C51.2633 12.8805 50.4582 12.0754 50.4582 11.0862C50.4582 10.097 51.2633 9.29199 52.2525 9.29199ZM52.2525 7.87549C50.4795 7.87549 49.0417 9.31324 49.0417 11.0862C49.0417 12.8592 50.4795 14.297 52.2525 14.297C54.0255 14.297 55.4632 12.8592 55.4632 11.0862C55.4632 9.31324 54.0255 7.87549 52.2525 7.87549Z" fill="white"/>
<path d="M23.4881 19.9976C24.4773 19.9976 25.2823 20.8026 25.2823 21.7918C25.2823 22.781 24.4773 23.586 23.4881 23.586C22.4989 23.586 21.6938 22.781 21.6938 21.7918C21.6938 20.8026 22.4989 19.9976 23.4881 19.9976ZM23.4881 18.5811C21.7151 18.5811 20.2773 20.0188 20.2773 21.7918C20.2773 23.5648 21.7151 25.0025 23.4881 25.0025C25.2611 25.0025 26.6988 23.5648 26.6988 21.7918C26.6988 20.0188 25.2611 18.5811 23.4881 18.5811Z" fill="white"/>
<path d="M3.21073 29.5874C4.19992 29.5874 5.00497 30.3924 5.00497 31.3816C5.00497 32.3708 4.19992 33.1759 3.21073 33.1759C2.22154 33.1759 1.4165 32.3708 1.4165 31.3816C1.4165 30.3924 2.22154 29.5874 3.21073 29.5874ZM3.21073 28.1709C1.43775 28.1709 0 29.6086 0 31.3816C0 33.1546 1.43775 34.5924 3.21073 34.5924C4.98372 34.5924 6.42147 33.1546 6.42147 31.3816C6.42147 29.6086 4.98372 28.1709 3.21073 28.1709Z" fill="white"/>
<path d="M24.6995 43.3213C25.6887 43.3213 26.4937 44.1263 26.4937 45.1155C26.4937 46.1047 25.6887 46.9098 24.6995 46.9098C23.7103 46.9098 22.9053 46.1047 22.9053 45.1155C22.9053 44.1263 23.7103 43.3213 24.6995 43.3213ZM24.6995 41.9048C22.9265 41.9048 21.4888 43.3425 21.4888 45.1155C21.4888 46.8885 22.9265 48.3263 24.6995 48.3263C26.4725 48.3263 27.9102 46.8885 27.9102 45.1155C27.9102 43.3425 26.4725 41.9048 24.6995 41.9048Z" fill="white"/>
<path d="M22.0204 43.3459L12.1167 37.5406L20.2757 26.1685" stroke="white" stroke-width="1.32848" stroke-miterlimit="10"/>
<path d="M5.80933 33.2683L8.86188 35.1617" stroke="white" stroke-width="1.32848" stroke-miterlimit="10"/>
<path d="M20.4812 22.9265L8.54248 28.8616" stroke="white" stroke-width="1.32848" stroke-miterlimit="10"/>
<path d="M21.8894 46.6794L14.9438 49.9256" stroke="white" stroke-width="1.32848" stroke-miterlimit="10"/>
<path d="M26.7009 42.6053L40.7502 27.9917" stroke="white" stroke-width="1.32848" stroke-miterlimit="10"/>
<path d="M57.7114 30.4587L43.9902 27.2244" stroke="white" stroke-width="1.32848" stroke-miterlimit="10"/>
<path d="M40.3269 25.8945L26.5845 22.6248" stroke="white" stroke-width="1.32848" stroke-miterlimit="10"/>
<path d="M21.1683 19.577L14.5178 13.8496" stroke="white" stroke-width="1.32848" stroke-miterlimit="10"/>
<path d="M23.4863 25.0049L24.3103 39.4933" stroke="white" stroke-width="1.32848" stroke-miterlimit="10"/>
<path d="M11.6436 49.9258V41.356" stroke="white" stroke-width="1.32848" stroke-miterlimit="10"/>
<path d="M30.8751 57.7831L27.3149 49.9263" stroke="white" stroke-width="1.32848" stroke-miterlimit="10"/>
<path d="M33.1323 57.7827L45.0899 39.9561" stroke="white" stroke-width="1.32848" stroke-miterlimit="10"/>
<path d="M53.4624 48.5673L58.3186 36.6333" stroke="white" stroke-width="1.32848" stroke-miterlimit="10"/>
<path d="M51.3776 48.4502L48.4856 38.1428" stroke="white" stroke-width="1.32848" stroke-miterlimit="10"/>
<path d="M49.23 52.6296L36.3469 58.154" stroke="white" stroke-width="1.32848" stroke-miterlimit="10"/>
<path d="M57.7127 32.3088L51.9546 34.757" stroke="white" stroke-width="1.32848" stroke-miterlimit="10"/>
<path d="M59.5282 28.4297L54.3391 15.6694" stroke="white" stroke-width="1.32848" stroke-miterlimit="10"/>
<path d="M50.5803 13.8259L44.3193 23.3779" stroke="white" stroke-width="1.32848" stroke-miterlimit="10"/>
<path d="M46.6589 34.2158L44.3193 30.4597" stroke="white" stroke-width="1.32848" stroke-miterlimit="10"/>
<path d="M45.6387 36.9526L29.5945 43.3458" stroke="white" stroke-width="1.32848" stroke-miterlimit="10"/>
<path d="M29.6259 59.0389L14.9438 53.1533" stroke="white" stroke-width="1.32848" stroke-miterlimit="10"/>
<path d="M13.356 10.1559L28.5763 3.84302" stroke="white" stroke-width="1.32848" stroke-miterlimit="10"/>
<path d="M10.7559 12.8235L4.47607 28.431" stroke="white" stroke-width="1.32848" stroke-miterlimit="10"/>
<path d="M4.47607 34.3359L10.7559 50.1937" stroke="white" stroke-width="1.32848" stroke-miterlimit="10"/>
<path d="M33.7161 3.552L49.2267 9.99708" stroke="white" stroke-width="1.32848" stroke-miterlimit="10"/>
<path d="M41.4758 24.7873L33.4561 6.08008" stroke="white" stroke-width="1.32848" stroke-miterlimit="10"/>
<path d="M31.3531 4.45703L25.3896 16.7145" stroke="white" stroke-width="1.32848" stroke-miterlimit="10"/>
</svg>
